<?xml version="1.0" standalone="no"?><!DOCTYPE svg PUBLIC "-//W3C//DTD SVG 1.1//EN" "http://www.w3.org/Graphics/SVG/1.1/DTD/svg11.dtd"><svg t="1640523826034" class="icon" viewBox="0 0 1024 1024" version="1.1" xmlns="http://www.w3.org/2000/svg" p-id="8807" xmlns:xlink="http://www.w3.org/1999/xlink" width="200" height="200"><defs><style type="text/css"></style></defs><path d="M520.820053 871.891627c75.062613-83.89632 140.499627-217.12896 175.70816-374.217387C733.508267 332.663467 729.101653 177.23392 692.28544 68.266667c-75.055787 83.89632-140.496213 217.12896-175.70816 374.2208-36.969813 164.99712-32.57344 320.433493 4.242773 429.40416z" fill="#5DA500" p-id="8808"></path><path d="M520.820053 892.371627a20.486827 20.486827 0 0 1-19.401386-13.922987c-39.550293-117.070507-41.311573-277.602987-4.82304-440.436053C531.131733 283.921067 596.896427 144.1792 677.024427 54.613333a20.473173 20.473173 0 0 1 34.665813 7.103147c39.553707 117.080747 41.314987 277.613227 4.819627 440.436053-34.532693 154.098347-100.3008 293.8368-180.425387 383.39584a20.50048 20.50048 0 0 1-15.264427 6.823254z m162.64192-781.315414c-64.682667 84.3776-117.425493 204.41088-146.899626 335.91296-31.214933 139.291307-33.440427 275.991893-6.918827 382.132907 64.682667-84.374187 117.425493-204.407467 146.899627-335.909547 31.214933-139.28448 33.44384-275.98848 6.918826-382.13632z" fill="#167203" p-id="8809"></path><path d="M342.45632 683.393707c110.127787-23.33696 241.64352-92.153173 362.871467-198.085974 127.327573-111.26784 215.616853-239.264427 250.29632-348.931413-110.1312 23.333547-241.64352 92.153173-362.868054 198.089387-127.32416 111.264427-215.620267 239.26784-250.299733 348.928z" fill="#5DA500" p-id="8810"></path><path d="M342.45632 703.873707a20.476587 20.476587 0 0 1-19.524267-26.658134c37.259947-117.818027 130.696533-248.367787 256.351574-358.17472 118.903467-103.908693 254.52544-177.790293 372.097706-202.7008a20.476587 20.476587 0 0 1 23.770454 26.210987c-37.259947 117.82144-130.69312 248.3712-256.34816 358.178133-118.90688 103.90528-254.532267 177.783467-372.10112 202.7008a20.650667 20.650667 0 0 1-4.246187 0.443734zM923.22816 165.6832c-102.045013 29.853013-215.524693 95.52896-316.992853 184.203947-107.48928 93.934933-190.061227 202.902187-231.379627 304.203093 102.045013-29.856427 215.52128-95.52896 316.996267-184.200533 107.48928-93.934933 190.057813-202.909013 231.376213-304.206507z" fill="#167203" p-id="8811"></path><path d="M418.89792 566.26176m-350.52544 0a350.52544 350.52544 0 1 0 701.05088 0 350.52544 350.52544 0 1 0-701.05088 0Z" fill="#603900" p-id="8812"></path><path d="M418.89792 937.2672c-204.57472 0-371.00544-166.434133-371.00544-371.00544S214.326613 195.25632 418.89792 195.25632s371.00544 166.43072 371.00544 371.00544-166.434133 371.00544-371.00544 371.00544z m0-701.05088c-181.988693 0-330.04544 148.056747-330.04544 330.04544s148.056747 330.04544 330.04544 330.04544 330.04544-148.056747 330.04544-330.04544-148.056747-330.04544-330.04544-330.04544z" fill="#724400" p-id="8813"></path><path d="M603.01312 637.074773m-318.65856 0a318.65856 318.65856 0 1 0 637.31712 0 318.65856 318.65856 0 1 0-637.31712 0Z" fill="#FFFFFF" p-id="8814"></path><path d="M603.01312 976.213333c-187.00288 0-339.13856-152.13568-339.13856-339.13856s152.139093-339.13856 339.13856-339.13856c187.00288 0 339.13856 152.13568 339.13856 339.13856S790.016 976.213333 603.01312 976.213333z m0-637.31712c-164.416853 0-298.17856 133.761707-298.17856 298.17856S438.596267 935.253333 603.01312 935.253333s298.17856-133.761707 298.17856-298.17856-133.761707-298.17856-298.17856-298.17856z" fill="#7A4C01" p-id="8815"></path><path d="M603.01312 637.074773m-212.43904 0a212.43904 212.43904 0 1 0 424.87808 0 212.43904 212.43904 0 1 0-424.87808 0Z" fill="#EAEAEA" p-id="8816"></path><path d="M161.60768 690.670933a20.456107 20.456107 0 0 1-19.27168-13.58848c-2.484907-6.966613-59.35104-172.260693 68.601173-314.610346a20.48 20.48 0 0 1 30.464 27.385173c-111.27808 123.794773-62.593707 267.461973-60.4672 273.517227 3.741013 10.656427-1.836373 22.350507-12.48256 26.115413a20.524373 20.524373 0 0 1-6.843733 1.181013z" fill="#FFFFFF" p-id="8817"></path><path d="M279.760213 324.437333m-25.685333 0a25.685333 25.685333 0 1 0 51.370667 0 25.685333 25.685333 0 1 0-51.370667 0Z" fill="#FFFFFF" p-id="8818"></path></svg>