<?xml version="1.0" standalone="no"?><!DOCTYPE svg PUBLIC "-//W3C//DTD SVG 1.1//EN" "http://www.w3.org/Graphics/SVG/1.1/DTD/svg11.dtd"><svg t="1640523894513" class="icon" viewBox="0 0 1024 1024" version="1.1" xmlns="http://www.w3.org/2000/svg" p-id="9671" xmlns:xlink="http://www.w3.org/1999/xlink" width="200" height="200"><defs><style type="text/css"></style></defs><path d="M418.9 406.1c0 30 24.3 54.3 54.3 54.3s54.3-24.3 54.3-54.3-24.3-54.3-54.3-54.3c-30 0.1-54.3 24.4-54.3 54.3z" fill="#EA680F" p-id="9672"></path><path d="M515.9 349.8c-4.2-8.8-14.6-12.3-23.4-8.1-2.1 1-3.9 2.4-5.4 4.1-4.6 5.1-5.9 12.8-2.7 19.3 127.9 126.5 85.3 513.7 63.7 543h110.7c21-175.7-21.6-463-142.9-558.3z" fill="#B05C25" p-id="9673"></path><path d="M658.9 908h-56.6c30.5-118 42.6-415.7-115.1-562.3 1.5-1.7 3.3-3 5.4-4.1 8.8-4.2 19.1-0.7 23.4 8.1C637.2 445.1 679.8 732.4 658.9 908z" fill="#8E4A1F" p-id="9674"></path><path d="M480.9 356.1c0 30 24.3 54.3 54.3 54.3 30 0 54.3-24.3 54.3-54.3s-24.3-54.3-54.3-54.3c-30 0.1-54.3 24.4-54.3 54.3z" fill="#F9970B" p-id="9675"></path><path d="M448.3 851.7c0 30 24.3 54.3 54.3 54.3s54.3-24.3 54.3-54.3-24.3-54.3-54.3-54.3c-30 0-54.3 24.3-54.3 54.3z" fill="#B05C25" p-id="9676"></path><path d="M521.3 306.7L313.1 632.8c-47.6-67.3-52.7-159.4-5.5-233.2 47-73.7 132.7-107.8 213.7-92.9z" fill="#00AD95" p-id="9677"></path><path d="M711.8 108.1L467.3 345.4c-27.2-67.3-12.9-147.2 42.4-200.9 55.4-53.7 135.7-65.6 202.1-36.4z" fill="#00AD95" p-id="9678"></path><path d="M522.3 330.3l-339.4 29.9c21.4-69.4 82.9-122.4 159.7-129.1 76.7-6.7 146.6 34.6 179.7 99.2z" fill="#00D16C" p-id="9679"></path><path d="M502.5 303L238.7 159.2c49.6-40.5 120.7-49.3 180.3-16.9 59.7 32.6 90.7 97.2 83.5 160.7z" fill="#90EB7A" p-id="9680"></path><path d="M829.4 390.5L445 346.1c39.7-72.3 120.3-117.2 207.3-107.1 86.7 10 155 72.2 177.1 151.5z" fill="#008486" p-id="9681"></path><path d="M250.4 901.3c-8.3 0-15.9-3.4-21.4-8.9s-8.9-13-8.9-21.4v-92.9c0-16.7 13.5-30.2 30.2-30.2 8.3 0 15.9 3.4 21.4 8.9s8.9 13 8.9 21.4v92.9c0.1 16.6-13.5 30.2-30.2 30.2z" fill="#90EB7A" p-id="9682"></path><path d="M740.8 901.3c-8.3 0-15.9-3.4-21.4-8.9s-8.9-13-8.9-21.4v-92.9c0-16.7 13.5-30.2 30.2-30.2 8.3 0 15.9 3.4 21.4 8.9s8.9 13 8.9 21.4v92.9c0 16.6-13.5 30.2-30.2 30.2z" fill="#008486" p-id="9683"></path><path d="M356.2 901.3c-8.3 0-15.9-3.4-21.4-8.9s-8.9-13-8.9-21.4v-58.6c0-16.7 13.5-30.2 30.2-30.2 8.3 0 15.9 3.4 21.4 8.9s8.9 13 8.9 21.4v58.7c0 16.5-13.5 30.1-30.2 30.1z" fill="#00AD95" p-id="9684"></path><path d="M932 901.2c0 8.3-3.4 15.9-8.9 21.4s-13 8.9-21.4 8.9H122.2c-16.7 0-30.2-13.5-30.2-30.2 0-8.3 3.4-15.9 8.9-21.4s13-8.9 21.4-8.9h779.5c16.7 0 30.2 13.5 30.2 30.2z" fill="#00D16C" p-id="9685"></path><path d="M932 901.2c0 8.3-3.4 15.9-8.9 21.4s-13 8.9-21.4 8.9H510.6V871h391.2c16.7 0 30.2 13.5 30.2 30.2z" fill="#00AD95" p-id="9686"></path></svg>